<?xml version="1.0" encoding="utf-8"?>
<!-- Generator: Adobe Illustrator 20.1.0, SVG Export Plug-In . SVG Version: 6.00 Build 0)  -->
<svg version="1.1" baseProfile="tiny" xmlns="http://www.w3.org/2000/svg" xmlns:xlink="http://www.w3.org/1999/xlink" x="0px"
	 y="0px" viewBox="0 0 235.5 118.5" xml:space="preserve">
<g id="Calque_5">
	<g id="FOND">
	</g>
	<g id="et_AVENIR">
	</g>
	<g id="SCIENCES">
		<g>
			<rect fill="#334690" width="235.5" height="118.5"/>
			<rect fill="#E3051B" width="235.5" height="63.5"/>
			<g>
				<path fill="#FFFFFF" stroke="#FFFFFF" stroke-width="0.5" stroke-miterlimit="10" d="M55.8,113.6h-4.9l-4.7-11.7H24.4l-4.8,11.7
					H15l18.3-44.7h4.2L55.8,113.6z M35.3,74.7l-9.2,22.6h18.3L35.3,74.7z"/>
				<path fill="#FFFFFF" stroke="#FFFFFF" stroke-width="0.5" stroke-miterlimit="10" d="M85.3,69.2h4.9l-17.3,44.7h-4L51.7,69.2h5
					L71,107.4L85.3,69.2z"/>
				<path fill="#FFFFFF" stroke="#FFFFFF" stroke-width="0.5" stroke-miterlimit="10" d="M125.1,73.8h-24.5v15.1h21.9v4.6h-21.9V109
					h24.8v4.6H96.1V69.2h29V73.8z"/>
				<path fill="#FFFFFF" stroke="#FFFFFF" stroke-width="0.5" stroke-miterlimit="10" d="M163.5,69.2h4.4v44.3h-3.6l-25.9-36.4v36.4
					H134V69.2h4.2l25.3,35.5V69.2z"/>
				<path fill="#FFFFFF" stroke="#FFFFFF" stroke-width="0.5" stroke-miterlimit="10" d="M183.6,69.2v44.3h-4.5V69.2H183.6z"/>
				<path fill="#FFFFFF" stroke="#FFFFFF" stroke-width="0.5" stroke-miterlimit="10" d="M222.5,113.6l-11.6-17.2h-11.5v17.2h-4.5
					V69.2h17.3c8.8,0,14.5,5.3,14.5,13.2c0,7.4-4.6,11.7-10.9,13l12.3,18.1H222.5z M211.7,73.8h-12.4v18h12.3c6,0,10.3-3.4,10.3-9.2
					C222,77.1,218.2,73.8,211.7,73.8z"/>
			</g>
			<g>
				<path fill="#FFFFFF" d="M15.1,69.8H9.6v2.4h4.9v1.4H9.6v2.5h5.5v1.4H7.9v-9.2h7.2V69.8z"/>
				<path fill="#FFFFFF" d="M21.3,77.5h-1.7v-7.7h-3.1v-1.5h7.9v1.5h-3.1V77.5z"/>
			</g>
			<g>
				<path fill="#FFFFFF" stroke="#FFFFFF" stroke-width="0.5" stroke-miterlimit="10" d="M29.1,16.5c-2.3-1.4-5-2.2-7.6-2.2
					c-2.6,0-5.9,1.5-5.9,7c0,8.7,16.3,5,16.3,21.9c0,11-6.4,15.2-13.9,15.2c-4,0-5.9-0.7-9.5-1.9l0.7-9.1c2.6,1.9,5.5,3.1,8.4,3.1
					c2.8,0,6.6-1.9,6.6-6.5c0-9.6-16.3-5.6-16.3-22.3c0-11.2,6.4-15.3,13-15.3c3.2,0,6.2,0.6,8.9,1.8L29.1,16.5z"/>
				<path fill="#FFFFFF" stroke="#FFFFFF" stroke-width="0.5" stroke-miterlimit="10" d="M64.2,56.8c-2.7,0.9-5.6,1.6-8.5,1.6
					c-12,0-20.4-8.1-20.4-25.1c0-17.2,7.8-26.9,20.4-26.9c2.4,0,5.7,0.6,8.4,2.1L63.6,17c-2.8-2.2-5.4-2.7-8-2.7
					c-7.7,0-12.5,7.9-12.5,18.2c0,10.2,4.7,17.9,12.6,17.9c2.9,0,6.4-0.9,8.1-2.1L64.2,56.8z"/>
				<path fill="#FFFFFF" stroke="#FFFFFF" stroke-width="0.5" stroke-miterlimit="10" d="M68.8,7.3h7.5v50.3h-7.5V7.3z"/>
				<path fill="#FFFFFF" stroke="#FFFFFF" stroke-width="0.5" stroke-miterlimit="10" d="M82.6,7.3h21.9v7.9H90.1v12.4h13.3v7.9
					H90.1v14.1h14.6v7.9h-22V7.3z"/>
				<path fill="#FFFFFF" stroke="#FFFFFF" stroke-width="0.5" stroke-miterlimit="10" d="M110.3,7.3h9.2l14.2,37.6h0.1V7.3h7.1v50.3
					h-9.1l-14.2-37.6h-0.1v37.6h-7.1V7.3z"/>
				<path fill="#FFFFFF" stroke="#FFFFFF" stroke-width="0.5" stroke-miterlimit="10" d="M174.5,56.8c-2.7,0.9-5.6,1.6-8.5,1.6
					c-12,0-20.4-8.1-20.4-25.1c0-17.2,7.8-26.9,20.4-26.9c2.4,0,5.7,0.6,8.4,2.1l-0.5,8.5c-2.8-2.2-5.4-2.7-8-2.7
					c-7.7,0-12.5,7.9-12.5,18.2c0,10.2,4.7,17.9,12.6,17.9c2.9,0,6.4-0.9,8.1-2.1L174.5,56.8z"/>
				<path fill="#FFFFFF" stroke="#FFFFFF" stroke-width="0.5" stroke-miterlimit="10" d="M178.4,7.3h21.9v7.9h-14.5v12.4h13.3v7.9
					h-13.3v14.1h14.6v7.9h-22V7.3z"/>
				<path fill="#FFFFFF" stroke="#FFFFFF" stroke-width="0.5" stroke-miterlimit="10" d="M226.4,16.5c-2.3-1.4-5-2.2-7.6-2.2
					c-2.6,0-5.9,1.5-5.9,7c0,8.7,16.3,5,16.3,21.9c0,11-6.4,15.2-13.9,15.2c-4,0-5.9-0.7-9.5-1.9l0.7-9.1c2.6,1.9,5.5,3.1,8.4,3.1
					c2.8,0,6.6-1.9,6.6-6.5c0-9.6-16.3-5.6-16.3-22.3c0-11.2,6.4-15.3,13-15.3c3.2,0,6.2,0.6,8.9,1.8L226.4,16.5z"/>
			</g>
		</g>
	</g>
</g>
<g id="REPERES">
</g>
</svg>
